<?xml version="1.0" encoding="utf-8"?>
<!-- Generator: Adobe Illustrator 23.0.6, SVG Export Plug-In . SVG Version: 6.00 Build 0)  -->
<svg version="1.1" id="Layer_1" xmlns="http://www.w3.org/2000/svg" xmlns:xlink="http://www.w3.org/1999/xlink" x="0px" y="0px"
	 viewBox="0 0 512 512" style="enable-background:new 0 0 512 512;" xml:space="preserve">
<style type="text/css">
	.st0{fill:#090979}
</style>
<g id="Blueprint">
	<path class="st0" d="M392,16H152c-1.2,0-2.5,0.3-3.6,0.8l-64,32c-4,2-5.6,6.8-3.6,10.7c0.8,1.6,2,2.8,3.6,3.6l64,32
		c1.1,0.6,2.3,0.9,3.6,0.9h240c22.1,0,40-17.9,40-40S414.1,16,392,16z M140.6,73.4c4.5-11.2,4.5-23.6,0-34.8l9-4.5L166,56
		l-16.4,21.9L140.6,73.4z M180,64h156v16H168L180,64z M336,48H180l-12-16h168V48z M126.3,45.8c2.3,6.6,2.3,13.8,0,20.4L105.9,56
		L126.3,45.8z M352,32h16v48h-16V32z M392,80h-8V32h8c13.3,0,24,10.7,24,24S405.3,80,392,80z"/>
	<path class="st0" d="M392,272h-48v-56c0-4.4-3.6-8-8-8H120c-4.4,0-8,3.6-8,8v224c0,4.4,3.6,8,8,8h64c4.4,0,8-3.6,8-8v-56
		c0-4.4-3.6-8-8-8h-56v-88h40c4.4,0,8-3.6,8-8s-3.6-8-8-8h-40v-48h80v56c0,4.4,3.6,8,8,8s8-3.6,8-8v-56h104v48h-40c-4.4,0-8,3.6-8,8
		s3.6,8,8,8h40v24c0,4.4,3.6,8,8,8s8-3.6,8-8v-24h40v64h-56c-4.4,0-8,3.6-8,8s3.6,8,8,8h56v32.8c-15.7,3.2-28,15.5-31.2,31.2H288
		v-24c0-4.4-3.6-8-8-8s-8,3.6-8,8v24h-48v-96h48v24c0,4.4,3.6,8,8,8s8-3.6,8-8v-32c0-4.4-3.6-8-8-8H152c-4.4,0-8,3.6-8,8s3.6,8,8,8
		h56v104c0,4.4,3.6,8,8,8h176c4.4,0,8-3.6,8-8V280C400,275.6,396.4,272,392,272z M176,392v40h-48v-40H176z M369.5,432
		c2.4-6.8,7.8-12.1,14.5-14.5V432H369.5z"/>
	<path class="st0" d="M120,160h48c4.4,0,8-3.6,8-8s-3.6-8-8-8h-48c-4.4,0-8,3.6-8,8S115.6,160,120,160z"/>
	<path class="st0" d="M120,192h112c4.4,0,8-3.6,8-8s-3.6-8-8-8H120c-4.4,0-8,3.6-8,8S115.6,192,120,192z"/>
	<path class="st0" d="M440,80c-4.4,0-8,3.6-8,8v24H80V88c0-4.4-3.6-8-8-8c-30.9,0-56,25.1-56,56v305.7c0,30,24.3,54.3,54.3,54.3
		h371.4c30,0,54.3-24.3,54.3-54.3V136C496,105.1,470.9,80,440,80z M32,136c0-19,13.4-35.4,32-39.2v287.8c-12.2,1.8-23.4,7.5-32,16.3
		V136z M480,441.7c0,21.1-17.2,38.3-38.3,38.3H70.3C49.2,480,32,462.8,32,441.6V440c0-22.1,17.9-40,40-40c4.4,0,8-3.6,8-8V128h352
		v264c0,4.4,3.6,8,8,8c22.1,0,40,17.9,40,40V441.7z M480,400.8c-8.6-8.8-19.8-14.5-32-16.3V96.8c18.6,3.8,32,20.2,32,39.2V400.8z"/>
</g>
</svg>
