<?xml version="1.0" encoding="utf-8"?>
<!-- Generator: Adobe Illustrator 23.0.6, SVG Export Plug-In . SVG Version: 6.00 Build 0)  -->
<svg version="1.1" id="Layer_1" xmlns="http://www.w3.org/2000/svg" xmlns:xlink="http://www.w3.org/1999/xlink" x="0px" y="0px"
	 viewBox="0 0 480 480" style="enable-background:new 0 0 480 480;" xml:space="preserve">
<style type="text/css">
	.st0{fill:#090979}
</style>
<path class="st0" d="M399.8,54.4c-0.1-0.3-0.2-0.5-0.3-0.8c-0.1-0.4-0.3-0.9-0.5-1.3c-0.2-0.5-0.6-0.9-0.9-1.3
	c-0.3-0.3-0.6-0.7-0.9-1c-0.4-0.3-0.8-0.6-1.3-0.9c-0.4-0.2-0.8-0.4-1.2-0.6c-0.5-0.2-1.1-0.3-1.6-0.3c-0.3-0.1-0.7-0.2-1-0.2h-40.3
	c-2.1-27.8-15-48-31.7-48s-29.6,20.2-31.7,48h-16.7c-2.1-27.8-15-48-31.7-48s-29.6,20.2-31.7,48h-16.7c-2.1-27.8-15-48-31.7-48
	s-29.6,20.2-31.7,48h-16.7C109.6,20.2,96.7,0,80,0S50.4,20.2,48.3,48H8c-4.4,0-8,3.6-8,8v416c0,4.4,3.6,8,8,8h384c4.4,0,8-3.6,8-8
	v-24h72c2.4,0,4.7-1.1,6.2-2.9c1.5-1.9,2.1-4.3,1.6-6.7L399.8,54.4z M320,16c5.8,0,13.8,12.3,15.6,32h-31.2
	C306.2,28.3,314.2,16,320,16z M240,16c5.8,0,13.8,12.3,15.6,32h-31.2C226.2,28.3,234.2,16,240,16z M160,16c5.8,0,13.8,12.3,15.6,32
	h-31.2C146.2,28.3,154.2,16,160,16z M80,16c5.8,0,13.8,12.3,15.6,32H64.4C66.2,28.3,74.2,16,80,16z M16,64h32.3
	c2.1,27.8,15,48,31.7,48c4.4,0,8-3.6,8-8s-3.6-8-8-8c-5.8,0-13.8-12.3-15.6-32h64c2.1,27.8,15,48,31.7,48c4.4,0,8-3.6,8-8
	s-3.6-8-8-8c-5.8,0-13.8-12.3-15.6-32h64c2.1,27.8,15,48,31.7,48c4.4,0,8-3.6,8-8s-3.6-8-8-8c-5.8,0-13.8-12.3-15.6-32h64
	c2.1,27.8,15,48,31.7,48c4.4,0,8-3.6,8-8s-3.6-8-8-8c-5.8,0-13.8-12.3-15.6-32H384v80H16V64z M384,464H16V160h368V464z M400,432
	V133.6L462.2,432H400z"/>
<path class="st0" d="M176,288h-32c-4.4,0-8,3.6-8,8v32c0,4.4,3.6,8,8,8h32c4.4,0,8-3.6,8-8v-32C184,291.6,180.4,288,176,288z
	 M168,320h-16v-16h16V320z"/>
<path class="st0" d="M256,288h-32c-4.4,0-8,3.6-8,8v32c0,4.4,3.6,8,8,8h32c4.4,0,8-3.6,8-8v-32C264,291.6,260.4,288,256,288z
	 M248,320h-16v-16h16V320z"/>
<path class="st0" d="M96,288H64c-4.4,0-8,3.6-8,8v32c0,4.4,3.6,8,8,8h32c4.4,0,8-3.6,8-8v-32C104,291.6,100.4,288,96,288z M88,320
	H72v-16h16V320z"/>
<path class="st0" d="M176,368h-32c-4.4,0-8,3.6-8,8v32c0,4.4,3.6,8,8,8h32c4.4,0,8-3.6,8-8v-32C184,371.6,180.4,368,176,368z
	 M168,400h-16v-16h16V400z"/>
<path class="st0" d="M256,368h-32c-4.4,0-8,3.6-8,8v32c0,4.4,3.6,8,8,8h32c4.4,0,8-3.6,8-8v-32C264,371.6,260.4,368,256,368z
	 M248,400h-16v-16h16V400z"/>
<path class="st0" d="M96,368H64c-4.4,0-8,3.6-8,8v32c0,4.4,3.6,8,8,8h32c4.4,0,8-3.6,8-8v-32C104,371.6,100.4,368,96,368z M88,400
	H72v-16h16V400z"/>
<path class="st0" d="M176,208h-32c-4.4,0-8,3.6-8,8v32c0,4.4,3.6,8,8,8h32c4.4,0,8-3.6,8-8v-32C184,211.6,180.4,208,176,208z
	 M168,240h-16v-16h16V240z"/>
<path class="st0" d="M256,208h-32c-4.4,0-8,3.6-8,8v32c0,4.4,3.6,8,8,8h32c4.4,0,8-3.6,8-8v-32C264,211.6,260.4,208,256,208z
	 M248,240h-16v-16h16V240z"/>
<path class="st0" d="M336,288h-32c-4.4,0-8,3.6-8,8v32c0,4.4,3.6,8,8,8h32c4.4,0,8-3.6,8-8v-32C344,291.6,340.4,288,336,288z
	 M328,320h-16v-16h16V320z"/>
<path class="st0" d="M336,368h-32c-4.4,0-8,3.6-8,8v32c0,4.4,3.6,8,8,8h32c4.4,0,8-3.6,8-8v-32C344,371.6,340.4,368,336,368z
	 M328,400h-16v-16h16V400z"/>
<path class="st0" d="M336,208h-32c-4.4,0-8,3.6-8,8v32c0,4.4,3.6,8,8,8h32c4.4,0,8-3.6,8-8v-32C344,211.6,340.4,208,336,208z
	 M328,240h-16v-16h16V240z"/>
<path class="st0" d="M96,208H64c-4.4,0-8,3.6-8,8v32c0,4.4,3.6,8,8,8h32c4.4,0,8-3.6,8-8v-32C104,211.6,100.4,208,96,208z M88,240
	H72v-16h16V240z"/>
</svg>
