<?xml version="1.0" encoding="utf-8"?>
<!-- Generator: Adobe Illustrator 23.0.6, SVG Export Plug-In . SVG Version: 6.00 Build 0)  -->
<svg version="1.1" id="Layer_1" xmlns="http://www.w3.org/2000/svg" xmlns:xlink="http://www.w3.org/1999/xlink" x="0px" y="0px"
	 viewBox="0 0 512 512" style="enable-background:new 0 0 512 512;" xml:space="preserve">
<style type="text/css">
	.st0{fill:#090979}
</style>
<path class="st0" d="M460,115c3.9,0,7-3.1,7-7l0,0V82.5c0-3.5-2.6-6.5-6.1-6.9c0,0-0.1,0-0.1,0L177.7,45c-0.2,0-0.5,0-0.7,0h-19.6
	c-0.7,0-1.3,0.1-1.9,0.3L50.1,75.8c0,0-0.1,0-0.1,0.1c-2.9,0.9-5,3.6-5,6.7V108c0,3.9,3.1,7,7,7l0,0h95.4l-1,22h-7.3
	c-3.8,0-6.9,3-7,6.7L121.5,423h-13.4c-3.9,0-7,3.1-7,7l0,0v23H52c-3.9,0-7,3.1-7,7s3.1,7,7,7h408c3.9,0,7-3.1,7-7s-3.1-7-7-7h-16.5
	v-21c0-3.9-3.1-7-7-7h-36.6v-21c0-3.9-3.1-7-7-7h-36.6v-21c0-3.9-3.1-7-7-7h-87.2c-3.9,0-7,3.1-7,7v28c0,3.9,3.1,7,7,7h36.6v14
	h-36.6c-3.9,0-7,3.1-7,7v21h-22v-23c0-3.9-3.1-7-7-7l0,0h-13.4l-10.6-279.3c-0.1-3.8-3.2-6.7-7-6.7h-7.3l-1-22h162.9v111.3h-10.3
	c-3.4,0-6.4,2.5-6.9,5.9l-4,25.3c-0.3,1.6,0.1,3.3,0.9,4.7l8,13.3c1.3,2.1,3.5,3.4,6,3.4h6.3v11c0,3.9,3.1,7,7,7
	c1.9,0,3.5,1.6,3.5,3.5c0,1.9-1.6,3.5-3.5,3.5c-1.2,0-2.3-0.6-2.9-1.6c-2.1-3.2-6.5-4.1-9.7-2c-3.2,2.1-4.1,6.5-2,9.7
	c0,0.1,0.1,0.1,0.1,0.2c5.4,8,16.3,10.2,24.3,4.8c8-5.4,10.2-16.3,4.8-24.3c-1.9-2.8-4.5-5-7.5-6.3V279h6.3c2.5,0,4.7-1.3,6-3.4
	l8-13.3c0.8-1.4,1.2-3.1,0.9-4.7l-4-25.3c-0.5-3.4-3.5-5.9-6.9-5.9h-10.2V115L460,115z M370.6,257.2L366,265h-18.6l-4.7-7.8
	l2.7-16.9h22.5L370.6,257.2z M149.2,75.5h-48l48.6-14.1L149.2,75.5z M163.9,59h6.6l0.6,16.5h-7.8L163.9,59z M185,75.5l-0.7-15.7
	l145.5,15.7H185z M59,89.5h394V101H59L59,89.5z M189.1,170.7l-9.9-7l9.4-6.6L189.1,170.7z M155,163.7l-9.9,7l0.5-13.6L155,163.7z
	 M167.1,172.3l18.6,13.1l-18.6,18l-18.6-18L167.1,172.3z M157,213.2L143,226.8l1-26.2L157,213.2z M177.9,324.8l16.6-14.1l1.1,29.2
	L177.9,324.8z M192.8,356l-25.7,25.5L141.4,356l25.7-21.9L192.8,356z M167.1,278.1l22.8,18.1l-22.8,19.4l-22.8-19.4L167.1,278.1z
	 M140.9,281l0.9-23l14.1,11.1L140.9,281z M178.4,269.2l14.1-11.2l0.9,23L178.4,269.2z M167.1,260.2l-21.2-16.8l21.2-20.5l21.2,20.5
	L167.1,260.2z M156.3,324.8l-17.6,15.1l1.1-29.2L156.3,324.8z M157.2,391.4l-21.2,21.1l1.5-40.7L157.2,391.4z M167.1,401.2L189,423
	h-43.8L167.1,401.2z M177,391.4l19.7-19.6l1.5,40.7L177,391.4z M191.3,226.8l-14.1-13.6l13.1-12.7L191.3,226.8z M167.1,155.2
	l-5.9-4.2H173L167.1,155.2z M429.5,453h-73.2v-14h73.2V453z M269.1,382.9h73.2v14h-73.2L269.1,382.9z M312.7,410.9h73.2v14h-73.2
	V410.9z M269.1,439h73.2v14h-73.2L269.1,439z M219.1,453h-104v-16h104V453z M173.8,137h-13.3l1-22h11.4L173.8,137z"/>
</svg>
