<svg width="46" height="46" viewBox="0 0 46 46" xmlns="http://www.w3.org/2000/svg">
  <path fill-rule="evenodd" clip-rule="evenodd" d="M21.587 15.556c-3.905-3.905-10.236-3.905-14.141 0-3.905 3.905-3.905 10.237 0 14.142l3.882 3.882c.015.016.031.03.047.046l10.297 10.297c.366.366.846.55 1.326.551.484.002.968-.183 1.337-.551l10.297-10.297c.016-.015.032-.03.047-.046l3.881-3.882c3.905-3.905 3.905-10.237 0-14.142-3.905-3.905-10.236-3.905-14.141 0l-1.414 1.414-1.414-1.414z" fill="#005BBB"/>
  <path fill-rule="evenodd" clip-rule="evenodd" d="M39.734 28.284H6.267c.334.486.715.949 1.145 1.383l14.294 14.294c.361.343.825.515 1.289.516.476.001.953-.179 1.32-.534l10.339-10.339c.007-.007.014-.014.021-.021l3.882-3.882c.443-.442.836-.916 1.179-1.414z" fill="#FFD500"/>
</svg>
